<svg width="20" height="22" viewBox="0 0 20 22" fill="none" xmlns="http://www.w3.org/2000/svg">
<path d="M18.94 17.06L17.26 7.31C17.1453 6.47997 16.7404 5.71734 16.1172 5.15725C15.4939 4.59716 14.6926 4.27576 13.855 4.25H13.75C13.75 3.25544 13.3549 2.30161 12.6517 1.59835C11.9484 0.895088 10.9946 0.5 10 0.5C9.00546 0.5 8.05163 0.895088 7.34837 1.59835C6.64511 2.30161 6.25002 3.25544 6.25002 4.25H6.14502C5.30749 4.27576 4.50611 4.59716 3.88287 5.15725C3.25963 5.71734 2.85477 6.47997 2.74002 7.31L1.06002 17.06C0.956834 17.6256 0.979262 18.2071 1.12572 18.7631C1.27217 19.3191 1.53907 19.8361 1.90752 20.2775C2.21796 20.6565 2.60803 20.9625 3.05003 21.1738C3.49204 21.385 3.97513 21.4964 4.46502 21.5H15.535C16.0249 21.4964 16.508 21.385 16.95 21.1738C17.392 20.9625 17.7821 20.6565 18.0925 20.2775C18.461 19.8361 18.7279 19.3191 18.8743 18.7631C19.0208 18.2071 19.0432 17.6256 18.94 17.06ZM10 2C10.5968 2 11.1691 2.23705 11.591 2.65901C12.013 3.08097 12.25 3.65326 12.25 4.25H7.75002C7.75002 3.65326 7.98707 3.08097 8.40903 2.65901C8.83099 2.23705 9.40328 2 10 2ZM16.945 19.31C16.7755 19.522 16.5612 19.6938 16.3174 19.8131C16.0736 19.9325 15.8064 19.9963 15.535 20H4.46502C4.19362 19.9963 3.92643 19.9325 3.68263 19.8131C3.43883 19.6938 3.2245 19.522 3.05502 19.31C2.82646 19.0365 2.66149 18.7157 2.57199 18.3707C2.4825 18.0257 2.47073 17.6651 2.53752 17.315L4.21752 7.565C4.27335 7.08382 4.49737 6.63782 4.85004 6.30574C5.20271 5.97365 5.66135 5.77683 6.14502 5.75H13.855C14.3387 5.77683 14.7973 5.97365 15.15 6.30574C15.5027 6.63782 15.7267 7.08382 15.7825 7.565L17.4625 17.315C17.5293 17.6651 17.5175 18.0257 17.428 18.3707C17.3386 18.7157 17.1736 19.0365 16.945 19.31Z" fill="#B8B8B8"/>
</svg>
